# MagicaVoxel @ Ephtracy

# group
g painting-1

# material
mtllib painting-1.mtl
usemtl palette

# normals
vn -1 0 0
vn 1 0 0
vn 0 0 1
vn 0 0 -1
vn 0 -1 0
vn 0 1 0

# texcoords
vt 0.970703 0.5
vt 0.974609 0.5
vt 0.978516 0.5
vt 0.982422 0.5
vt 0.986328 0.5
vt 0.990234 0.5
vt 0.994141 0.5

# verts
v -4 0 1
v -4 0 -0
v -4 7 1
v -4 7 -0
v -3 1 -0
v -3 1 -1
v -3 2 -0
v -3 2 -1
v -3 6 -0
v -3 6 -1
v 3 1 1
v 3 1 -0
v 3 2 -0
v 3 6 1
v 3 6 -0
v -3 1 1
v -3 1 -0
v -3 2 -0
v -3 6 1
v -3 6 -0
v 3 1 -0
v 3 1 -1
v 3 2 -0
v 3 2 -1
v 3 6 -0
v 3 6 -1
v 4 0 1
v 4 0 -0
v 4 7 1
v 4 7 -0
v -4 0 1
v -4 7 1
v -3 1 1
v -3 6 1
v 3 1 1
v 3 6 1
v 4 0 1
v 4 7 1
v -3 1 -0
v -3 2 -0
v -3 6 -0
v -2 3 -0
v -2 4 -0
v -1 2 -0
v -1 3 -0
v -1 4 -0
v 0 1 -0
v 0 2 -0
v 0 4 -0
v 0 5 -0
v 1 1 -0
v 1 3 -0
v 1 4 -0
v 1 5 -0
v 2 1 -0
v 2 2 -0
v 2 4 -0
v 3 1 -0
v 3 2 -0
v 3 6 -0
v -4 0 -0
v -4 7 -0
v -3 1 -0
v -3 2 -0
v -3 6 -0
v 0 1 -0
v 1 1 -0
v 2 1 -0
v 3 1 -0
v 3 2 -0
v 3 6 -0
v 4 0 -0
v 4 7 -0
v -3 1 -1
v -3 2 -1
v -3 6 -1
v -2 3 -1
v -2 4 -1
v -1 2 -1
v -1 3 -1
v -1 4 -1
v 0 1 -1
v 0 2 -1
v 0 4 -1
v 0 5 -1
v 1 1 -1
v 1 3 -1
v 1 4 -1
v 1 5 -1
v 2 1 -1
v 2 2 -1
v 2 4 -1
v 3 1 -1
v 3 2 -1
v 3 6 -1
v -4 0 1
v 4 0 1
v -4 0 -0
v 4 0 -0
v -3 1 -0
v 0 1 -0
v 1 1 -0
v 2 1 -0
v 3 1 -0
v -3 1 -1
v 0 1 -1
v 1 1 -1
v 2 1 -1
v 3 1 -1
v -3 6 1
v 3 6 1
v -3 6 -0
v 3 6 -0
v -3 1 1
v 3 1 1
v -3 1 -0
v 0 1 -0
v 1 1 -0
v 2 1 -0
v 3 1 -0
v -3 6 -0
v 3 6 -0
v -3 6 -1
v 3 6 -1
v -4 7 1
v 4 7 1
v -4 7 -0
v 4 7 -0

# faces
f 3/7/1 2/7/1 1/7/1
f 4/7/1 2/7/1 3/7/1
f 7/2/1 6/2/1 5/2/1
f 8/2/1 6/2/1 7/2/1
f 9/1/1 8/1/1 7/1/1
f 10/1/1 8/1/1 9/1/1
f 13/7/1 12/7/1 11/7/1
f 14/7/1 13/7/1 11/7/1
f 15/7/1 13/7/1 14/7/1
f 16/7/2 17/7/2 18/7/2
f 16/7/2 18/7/2 19/7/2
f 19/7/2 18/7/2 20/7/2
f 21/2/2 22/2/2 23/2/2
f 23/2/2 22/2/2 24/2/2
f 23/1/2 24/1/2 25/1/2
f 25/1/2 24/1/2 26/1/2
f 27/7/2 28/7/2 29/7/2
f 29/7/2 28/7/2 30/7/2
f 33/7/3 32/7/3 31/7/3
f 34/7/3 32/7/3 33/7/3
f 35/7/3 33/7/3 31/7/3
f 36/7/3 32/7/3 34/7/3
f 37/7/3 35/7/3 31/7/3
f 37/7/3 36/7/3 35/7/3
f 38/7/3 32/7/3 36/7/3
f 38/7/3 36/7/3 37/7/3
f 42/1/3 41/1/3 40/1/3
f 43/1/3 41/1/3 42/1/3
f 44/2/3 40/2/3 39/2/3
f 44/1/3 42/1/3 40/1/3
f 45/6/3 43/6/3 42/6/3
f 45/1/3 42/1/3 44/1/3
f 46/1/3 41/1/3 43/1/3
f 46/6/3 43/6/3 45/6/3
f 47/2/3 44/2/3 39/2/3
f 48/5/3 45/5/3 44/5/3
f 48/2/3 44/2/3 47/2/3
f 49/1/3 41/1/3 46/1/3
f 49/1/3 46/1/3 45/1/3
f 50/1/3 41/1/3 49/1/3
f 51/5/3 48/5/3 47/5/3
f 52/5/3 45/5/3 48/5/3
f 52/5/3 48/5/3 51/5/3
f 52/1/3 49/1/3 45/1/3
f 53/4/3 50/4/3 49/4/3
f 53/1/3 49/1/3 52/1/3
f 54/1/3 41/1/3 50/1/3
f 54/4/3 50/4/3 53/4/3
f 55/3/3 53/3/3 52/3/3
f 55/3/3 52/3/3 51/3/3
f 56/3/3 53/3/3 55/3/3
f 57/1/3 54/1/3 53/1/3
f 57/3/3 53/3/3 56/3/3
f 58/2/3 56/2/3 55/2/3
f 59/1/3 57/1/3 56/1/3
f 59/2/3 56/2/3 58/2/3
f 60/1/3 41/1/3 54/1/3
f 60/1/3 57/1/3 59/1/3
f 60/1/3 54/1/3 57/1/3
f 61/7/4 62/7/4 63/7/4
f 63/7/4 62/7/4 64/7/4
f 64/7/4 62/7/4 65/7/4
f 61/7/4 63/7/4 66/7/4
f 61/7/4 66/7/4 67/7/4
f 61/7/4 67/7/4 68/7/4
f 61/7/4 68/7/4 69/7/4
f 65/7/4 62/7/4 71/7/4
f 69/7/4 70/7/4 72/7/4
f 70/7/4 71/7/4 72/7/4
f 61/7/4 69/7/4 72/7/4
f 71/7/4 62/7/4 73/7/4
f 72/7/4 71/7/4 73/7/4
f 75/1/4 76/1/4 77/1/4
f 77/1/4 76/1/4 78/1/4
f 74/2/4 75/2/4 79/2/4
f 75/1/4 77/1/4 79/1/4
f 77/6/4 78/6/4 80/6/4
f 79/1/4 77/1/4 80/1/4
f 78/1/4 76/1/4 81/1/4
f 80/6/4 78/6/4 81/6/4
f 74/2/4 79/2/4 82/2/4
f 79/5/4 80/5/4 83/5/4
f 82/2/4 79/2/4 83/2/4
f 81/1/4 76/1/4 84/1/4
f 80/1/4 81/1/4 84/1/4
f 84/1/4 76/1/4 85/1/4
f 82/5/4 83/5/4 86/5/4
f 83/5/4 80/5/4 87/5/4
f 86/5/4 83/5/4 87/5/4
f 80/1/4 84/1/4 87/1/4
f 84/4/4 85/4/4 88/4/4
f 87/1/4 84/1/4 88/1/4
f 85/1/4 76/1/4 89/1/4
f 88/4/4 85/4/4 89/4/4
f 87/3/4 88/3/4 90/3/4
f 86/3/4 87/3/4 90/3/4
f 90/3/4 88/3/4 91/3/4
f 88/1/4 89/1/4 92/1/4
f 91/3/4 88/3/4 92/3/4
f 90/2/4 91/2/4 93/2/4
f 91/1/4 92/1/4 94/1/4
f 93/2/4 91/2/4 94/2/4
f 89/1/4 76/1/4 95/1/4
f 94/1/4 92/1/4 95/1/4
f 92/1/4 89/1/4 95/1/4
f 98/7/5 97/7/5 96/7/5
f 99/7/5 97/7/5 98/7/5
f 105/2/5 101/2/5 100/2/5
f 106/5/5 102/5/5 101/5/5
f 106/2/5 101/2/5 105/2/5
f 107/3/5 103/3/5 102/3/5
f 107/5/5 102/5/5 106/5/5
f 108/2/5 104/2/5 103/2/5
f 108/3/5 103/3/5 107/3/5
f 109/2/5 104/2/5 108/2/5
f 112/7/5 111/7/5 110/7/5
f 113/7/5 111/7/5 112/7/5
f 114/7/6 115/7/6 116/7/6
f 116/7/6 115/7/6 117/7/6
f 117/7/6 115/7/6 118/7/6
f 118/7/6 115/7/6 119/7/6
f 119/7/6 115/7/6 120/7/6
f 121/1/6 122/1/6 123/1/6
f 123/1/6 122/1/6 124/1/6
f 125/7/6 126/7/6 127/7/6
f 127/7/6 126/7/6 128/7/6
