# MagicaVoxel @ Ephtracy

# group
g male1

# material
mtllib male1.mtl
usemtl palette

# normals
vn -1 0 0
vn 1 0 0
vn 0 0 1
vn 0 0 -1
vn 0 -1 0
vn 0 1 0

# texcoords
vt 0.306641 0.5
vt 0.939453 0.5
vt 0.943359 0.5
vt 0.986328 0.5
vt 0.990234 0.5
vt 0.994141 0.5

# verts
v -8.5 28 0.5
v -8.5 28 -0.5
v -8.5 30 0.5
v -8.5 30 -0.5
v -4.5 0 3.5
v -4.5 0 -0.5
v -4.5 1 3.5
v -4.5 1 0.5
v -4.5 2 0.5
v -4.5 2 -0.5
v -4.5 15 0.5
v -4.5 15 -0.5
v -4.5 16 0.5
v -4.5 16 -0.5
v -4.5 28 0.5
v -4.5 28 -0.5
v -2.5 32 0.5
v -2.5 32 -0.5
v -2.5 37 0.5
v -2.5 37 -0.5
v -1.5 30 0.5
v -1.5 30 -0.5
v -1.5 32 0.5
v -1.5 32 -0.5
v -1.5 35 1.5
v -1.5 35 0.5
v -1.5 36 1.5
v -1.5 36 0.5
v -0.5 33 1.5
v -0.5 33 0.5
v -0.5 34 1.5
v -0.5 34 0.5
v 1.5 35 1.5
v 1.5 35 0.5
v 1.5 36 1.5
v 1.5 36 0.5
v 3.5 0 3.5
v 3.5 0 -0.5
v 3.5 1 3.5
v 3.5 1 0.5
v 3.5 2 0.5
v 3.5 2 -0.5
v 3.5 15 0.5
v 3.5 15 -0.5
v -2.5 0 3.5
v -2.5 0 -0.5
v -2.5 1 3.5
v -2.5 1 0.5
v -2.5 2 0.5
v -2.5 2 -0.5
v -2.5 15 0.5
v -2.5 15 -0.5
v -0.5 35 1.5
v -0.5 35 0.5
v -0.5 36 1.5
v -0.5 36 0.5
v 1.5 33 1.5
v 1.5 33 0.5
v 1.5 34 1.5
v 1.5 34 0.5
v 2.5 30 0.5
v 2.5 30 -0.5
v 2.5 32 0.5
v 2.5 32 -0.5
v 2.5 35 1.5
v 2.5 35 0.5
v 2.5 36 1.5
v 2.5 36 0.5
v 3.5 32 0.5
v 3.5 32 -0.5
v 3.5 37 0.5
v 3.5 37 -0.5
v 5.5 0 3.5
v 5.5 0 -0.5
v 5.5 1 3.5
v 5.5 1 0.5
v 5.5 2 0.5
v 5.5 2 -0.5
v 5.5 15 0.5
v 5.5 15 -0.5
v 5.5 16 0.5
v 5.5 16 -0.5
v 5.5 28 0.5
v 5.5 28 -0.5
v 9.5 28 0.5
v 9.5 28 -0.5
v 9.5 30 0.5
v 9.5 30 -0.5
v -4.5 0 3.5
v -4.5 1 3.5
v -2.5 0 3.5
v -2.5 1 3.5
v 3.5 0 3.5
v 3.5 1 3.5
v 5.5 0 3.5
v 5.5 1 3.5
v -1.5 35 1.5
v -1.5 36 1.5
v -0.5 33 1.5
v -0.5 34 1.5
v -0.5 35 1.5
v -0.5 36 1.5
v 1.5 33 1.5
v 1.5 34 1.5
v 1.5 35 1.5
v 1.5 36 1.5
v 2.5 35 1.5
v 2.5 36 1.5
v -8.5 28 0.5
v -8.5 30 0.5
v -6.5 28 0.5
v -6.5 30 0.5
v -4.5 1 0.5
v -4.5 2 0.5
v -4.5 15 0.5
v -4.5 16 0.5
v -4.5 28 0.5
v -2.5 1 0.5
v -2.5 2 0.5
v -2.5 15 0.5
v -2.5 32 0.5
v -2.5 37 0.5
v -1.5 15 0.5
v -1.5 16 0.5
v -1.5 28 0.5
v -1.5 30 0.5
v -1.5 32 0.5
v -1.5 35 0.5
v -1.5 36 0.5
v -0.5 33 0.5
v -0.5 34 0.5
v -0.5 35 0.5
v -0.5 36 0.5
v 1.5 33 0.5
v 1.5 34 0.5
v 1.5 35 0.5
v 1.5 36 0.5
v 2.5 15 0.5
v 2.5 16 0.5
v 2.5 28 0.5
v 2.5 30 0.5
v 2.5 32 0.5
v 2.5 35 0.5
v 2.5 36 0.5
v 3.5 1 0.5
v 3.5 2 0.5
v 3.5 15 0.5
v 3.5 32 0.5
v 3.5 37 0.5
v 5.5 1 0.5
v 5.5 2 0.5
v 5.5 15 0.5
v 5.5 16 0.5
v 5.5 28 0.5
v 7.5 28 0.5
v 7.5 30 0.5
v 9.5 28 0.5
v 9.5 30 0.5
v -8.5 28 -0.5
v -8.5 30 -0.5
v -6.5 28 -0.5
v -6.5 30 -0.5
v -4.5 0 -0.5
v -4.5 2 -0.5
v -4.5 15 -0.5
v -4.5 16 -0.5
v -4.5 28 -0.5
v -2.5 0 -0.5
v -2.5 2 -0.5
v -2.5 15 -0.5
v -2.5 32 -0.5
v -2.5 37 -0.5
v -1.5 15 -0.5
v -1.5 16 -0.5
v -1.5 28 -0.5
v -1.5 30 -0.5
v -1.5 32 -0.5
v 2.5 15 -0.5
v 2.5 16 -0.5
v 2.5 28 -0.5
v 2.5 30 -0.5
v 2.5 32 -0.5
v 3.5 0 -0.5
v 3.5 2 -0.5
v 3.5 15 -0.5
v 3.5 32 -0.5
v 3.5 37 -0.5
v 5.5 0 -0.5
v 5.5 2 -0.5
v 5.5 15 -0.5
v 5.5 16 -0.5
v 5.5 28 -0.5
v 7.5 28 -0.5
v 7.5 30 -0.5
v 9.5 28 -0.5
v 9.5 30 -0.5
v -4.5 0 3.5
v -2.5 0 3.5
v 3.5 0 3.5
v 5.5 0 3.5
v -4.5 0 -0.5
v -2.5 0 -0.5
v 3.5 0 -0.5
v 5.5 0 -0.5
v -2.5 15 0.5
v -1.5 15 0.5
v 2.5 15 0.5
v 3.5 15 0.5
v -2.5 15 -0.5
v -1.5 15 -0.5
v 2.5 15 -0.5
v 3.5 15 -0.5
v -8.5 28 0.5
v -6.5 28 0.5
v -4.5 28 0.5
v 5.5 28 0.5
v 7.5 28 0.5
v 9.5 28 0.5
v -8.5 28 -0.5
v -6.5 28 -0.5
v -4.5 28 -0.5
v 5.5 28 -0.5
v 7.5 28 -0.5
v 9.5 28 -0.5
v -2.5 32 0.5
v -1.5 32 0.5
v 2.5 32 0.5
v 3.5 32 0.5
v -2.5 32 -0.5
v -1.5 32 -0.5
v 2.5 32 -0.5
v 3.5 32 -0.5
v -0.5 33 1.5
v 1.5 33 1.5
v -0.5 33 0.5
v 1.5 33 0.5
v -1.5 35 1.5
v -0.5 35 1.5
v 1.5 35 1.5
v 2.5 35 1.5
v -1.5 35 0.5
v -0.5 35 0.5
v 1.5 35 0.5
v 2.5 35 0.5
v -4.5 1 3.5
v -2.5 1 3.5
v 3.5 1 3.5
v 5.5 1 3.5
v -4.5 1 0.5
v -2.5 1 0.5
v 3.5 1 0.5
v 5.5 1 0.5
v -8.5 30 0.5
v -6.5 30 0.5
v -1.5 30 0.5
v 2.5 30 0.5
v 7.5 30 0.5
v 9.5 30 0.5
v -8.5 30 -0.5
v -6.5 30 -0.5
v -1.5 30 -0.5
v 2.5 30 -0.5
v 7.5 30 -0.5
v 9.5 30 -0.5
v -0.5 34 1.5
v 1.5 34 1.5
v -0.5 34 0.5
v 1.5 34 0.5
v -1.5 36 1.5
v -0.5 36 1.5
v 1.5 36 1.5
v 2.5 36 1.5
v -1.5 36 0.5
v -0.5 36 0.5
v 1.5 36 0.5
v 2.5 36 0.5
v -2.5 37 0.5
v 3.5 37 0.5
v -2.5 37 -0.5
v 3.5 37 -0.5

# faces
f 3/3/1 2/3/1 1/3/1
f 4/3/1 2/3/1 3/3/1
f 7/1/1 6/1/1 5/1/1
f 8/1/1 6/1/1 7/1/1
f 9/1/1 6/1/1 8/1/1
f 10/1/1 6/1/1 9/1/1
f 11/4/1 10/4/1 9/4/1
f 12/4/1 10/4/1 11/4/1
f 13/5/1 12/5/1 11/5/1
f 14/5/1 12/5/1 13/5/1
f 15/2/1 14/2/1 13/2/1
f 16/2/1 14/2/1 15/2/1
f 19/3/1 18/3/1 17/3/1
f 20/3/1 18/3/1 19/3/1
f 23/3/1 22/3/1 21/3/1
f 24/3/1 22/3/1 23/3/1
f 27/5/1 26/5/1 25/5/1
f 28/5/1 26/5/1 27/5/1
f 31/5/1 30/5/1 29/5/1
f 32/5/1 30/5/1 31/5/1
f 35/5/1 34/5/1 33/5/1
f 36/5/1 34/5/1 35/5/1
f 39/1/1 38/1/1 37/1/1
f 40/1/1 38/1/1 39/1/1
f 41/1/1 38/1/1 40/1/1
f 42/1/1 38/1/1 41/1/1
f 43/4/1 42/4/1 41/4/1
f 44/4/1 42/4/1 43/4/1
f 45/1/2 46/1/2 47/1/2
f 47/1/2 46/1/2 48/1/2
f 48/1/2 46/1/2 49/1/2
f 49/1/2 46/1/2 50/1/2
f 49/4/2 50/4/2 51/4/2
f 51/4/2 50/4/2 52/4/2
f 53/5/2 54/5/2 55/5/2
f 55/5/2 54/5/2 56/5/2
f 57/5/2 58/5/2 59/5/2
f 59/5/2 58/5/2 60/5/2
f 61/3/2 62/3/2 63/3/2
f 63/3/2 62/3/2 64/3/2
f 65/5/2 66/5/2 67/5/2
f 67/5/2 66/5/2 68/5/2
f 69/3/2 70/3/2 71/3/2
f 71/3/2 70/3/2 72/3/2
f 73/1/2 74/1/2 75/1/2
f 75/1/2 74/1/2 76/1/2
f 76/1/2 74/1/2 77/1/2
f 77/1/2 74/1/2 78/1/2
f 77/4/2 78/4/2 79/4/2
f 79/4/2 78/4/2 80/4/2
f 79/5/2 80/5/2 81/5/2
f 81/5/2 80/5/2 82/5/2
f 81/2/2 82/2/2 83/2/2
f 83/2/2 82/2/2 84/2/2
f 85/3/2 86/3/2 87/3/2
f 87/3/2 86/3/2 88/3/2
f 91/1/3 90/1/3 89/1/3
f 92/1/3 90/1/3 91/1/3
f 95/1/3 94/1/3 93/1/3
f 96/1/3 94/1/3 95/1/3
f 101/5/3 98/5/3 97/5/3
f 102/5/3 98/5/3 101/5/3
f 103/5/3 100/5/3 99/5/3
f 104/5/3 100/5/3 103/5/3
f 107/5/3 106/5/3 105/5/3
f 108/5/3 106/5/3 107/5/3
f 111/3/3 110/3/3 109/3/3
f 112/3/3 110/3/3 111/3/3
f 117/2/3 112/2/3 111/2/3
f 118/1/3 114/1/3 113/1/3
f 119/4/3 115/4/3 114/4/3
f 119/1/3 114/1/3 118/1/3
f 120/5/3 116/5/3 115/5/3
f 120/4/3 115/4/3 119/4/3
f 123/5/3 116/5/3 120/5/3
f 124/2/3 117/2/3 116/2/3
f 124/5/3 116/5/3 123/5/3
f 125/2/3 112/2/3 117/2/3
f 125/2/3 117/2/3 124/2/3
f 126/2/3 112/2/3 125/2/3
f 127/3/3 122/3/3 121/3/3
f 128/3/3 122/3/3 127/3/3
f 129/3/3 122/3/3 128/3/3
f 130/3/3 126/3/3 125/3/3
f 130/3/3 127/3/3 126/3/3
f 130/3/3 128/3/3 127/3/3
f 131/3/3 128/3/3 130/3/3
f 132/3/3 128/3/3 131/3/3
f 133/3/3 122/3/3 129/3/3
f 134/3/3 130/3/3 125/3/3
f 135/3/3 132/3/3 131/3/3
f 135/3/3 133/3/3 132/3/3
f 136/3/3 133/3/3 135/3/3
f 137/3/3 122/3/3 133/3/3
f 137/3/3 133/3/3 136/3/3
f 138/6/3 124/6/3 123/6/3
f 139/2/3 125/2/3 124/2/3
f 139/6/3 124/6/3 138/6/3
f 140/3/3 134/3/3 125/3/3
f 140/2/3 125/2/3 139/2/3
f 140/3/3 136/3/3 135/3/3
f 140/3/3 135/3/3 134/3/3
f 141/3/3 136/3/3 140/3/3
f 142/3/3 136/3/3 141/3/3
f 143/3/3 136/3/3 142/3/3
f 144/3/3 122/3/3 137/3/3
f 147/5/3 139/5/3 138/5/3
f 148/3/3 143/3/3 142/3/3
f 148/3/3 144/3/3 143/3/3
f 149/3/3 122/3/3 144/3/3
f 149/3/3 144/3/3 148/3/3
f 150/1/3 146/1/3 145/1/3
f 151/4/3 147/4/3 146/4/3
f 151/1/3 146/1/3 150/1/3
f 152/5/3 139/5/3 147/5/3
f 152/4/3 147/4/3 151/4/3
f 153/2/3 140/2/3 139/2/3
f 153/5/3 139/5/3 152/5/3
f 153/2/3 141/2/3 140/2/3
f 154/2/3 141/2/3 153/2/3
f 155/2/3 141/2/3 154/2/3
f 156/2/3 141/2/3 155/2/3
f 157/3/3 156/3/3 155/3/3
f 158/3/3 156/3/3 157/3/3
f 159/3/4 160/3/4 161/3/4
f 161/3/4 160/3/4 162/3/4
f 161/2/4 162/2/4 167/2/4
f 163/1/4 164/1/4 168/1/4
f 164/4/4 165/4/4 169/4/4
f 168/1/4 164/1/4 169/1/4
f 165/5/4 166/5/4 170/5/4
f 169/4/4 165/4/4 170/4/4
f 170/5/4 166/5/4 173/5/4
f 166/2/4 167/2/4 174/2/4
f 173/5/4 166/5/4 174/5/4
f 167/2/4 162/2/4 175/2/4
f 174/2/4 167/2/4 175/2/4
f 175/2/4 162/2/4 176/2/4
f 171/3/4 172/3/4 177/3/4
f 173/6/4 174/6/4 178/6/4
f 174/2/4 175/2/4 179/2/4
f 178/6/4 174/6/4 179/6/4
f 175/3/4 176/3/4 180/3/4
f 179/2/4 175/2/4 180/2/4
f 176/3/4 177/3/4 180/3/4
f 180/3/4 177/3/4 181/3/4
f 177/3/4 172/3/4 182/3/4
f 181/3/4 177/3/4 182/3/4
f 178/5/4 179/5/4 185/5/4
f 182/3/4 172/3/4 186/3/4
f 186/3/4 172/3/4 187/3/4
f 183/1/4 184/1/4 188/1/4
f 184/4/4 185/4/4 189/4/4
f 188/1/4 184/1/4 189/1/4
f 185/5/4 179/5/4 190/5/4
f 189/4/4 185/4/4 190/4/4
f 180/2/4 181/2/4 191/2/4
f 190/5/4 179/5/4 191/5/4
f 179/2/4 180/2/4 191/2/4
f 191/2/4 181/2/4 192/2/4
f 192/2/4 181/2/4 193/2/4
f 193/2/4 181/2/4 194/2/4
f 193/3/4 194/3/4 195/3/4
f 195/3/4 194/3/4 196/3/4
f 201/1/5 198/1/5 197/1/5
f 202/1/5 198/1/5 201/1/5
f 203/1/5 200/1/5 199/1/5
f 204/1/5 200/1/5 203/1/5
f 209/5/5 206/5/5 205/5/5
f 210/6/5 207/6/5 206/6/5
f 210/5/5 206/5/5 209/5/5
f 211/5/5 208/5/5 207/5/5
f 211/6/5 207/6/5 210/6/5
f 212/5/5 208/5/5 211/5/5
f 219/3/5 214/3/5 213/3/5
f 220/2/5 215/2/5 214/2/5
f 220/3/5 214/3/5 219/3/5
f 221/2/5 215/2/5 220/2/5
f 222/2/5 217/2/5 216/2/5
f 223/3/5 218/3/5 217/3/5
f 223/2/5 217/2/5 222/2/5
f 224/3/5 218/3/5 223/3/5
f 229/3/5 226/3/5 225/3/5
f 230/3/5 226/3/5 229/3/5
f 231/3/5 228/3/5 227/3/5
f 232/3/5 228/3/5 231/3/5
f 235/5/5 234/5/5 233/5/5
f 236/5/5 234/5/5 235/5/5
f 241/5/5 238/5/5 237/5/5
f 242/5/5 238/5/5 241/5/5
f 243/5/5 240/5/5 239/5/5
f 244/5/5 240/5/5 243/5/5
f 245/1/6 246/1/6 249/1/6
f 249/1/6 246/1/6 250/1/6
f 247/1/6 248/1/6 251/1/6
f 251/1/6 248/1/6 252/1/6
f 253/3/6 254/3/6 259/3/6
f 254/2/6 255/2/6 260/2/6
f 259/3/6 254/3/6 260/3/6
f 260/2/6 255/2/6 261/2/6
f 256/2/6 257/2/6 262/2/6
f 257/3/6 258/3/6 263/3/6
f 262/2/6 257/2/6 263/2/6
f 263/3/6 258/3/6 264/3/6
f 265/5/6 266/5/6 267/5/6
f 267/5/6 266/5/6 268/5/6
f 269/5/6 270/5/6 273/5/6
f 273/5/6 270/5/6 274/5/6
f 271/5/6 272/5/6 275/5/6
f 275/5/6 272/5/6 276/5/6
f 277/3/6 278/3/6 279/3/6
f 279/3/6 278/3/6 280/3/6
